<svg xmlns="http://www.w3.org/2000/svg" xmlns:xlink="http://www.w3.org/1999/xlink" version="1.1" x="0px" y="0px" viewBox="0 0 32 40" enable-background="new 0 0 32 32" xml:space="preserve"><path d="M11.948,5.882H5.833v16.164l6.114-5.775V5.882z M20.234,5.882V8.44l2.707-2.559H20.234z   M19.146,5.882h-6.112v9.361l6.112-5.775V5.882z M20.234,26.571h6.113V10.376l-6.113,5.775V26.571z M1.087,1.13v30.002h30V1.13  H1.087z M4.572,23.239l0.012-0.012V4.626h19.688l0,0h0.001h1.819L4.583,24.95v-1.695L4.572,23.239z M27.592,9.198v18.438H6.142  l21.45-20.267v1.773l0.024,0.033L27.592,9.198z M11.948,26.571v-2.59l-2.742,2.59H11.948z M13.035,26.571h6.112v-9.393l-6.112,5.775  V26.571z"/><text x="0" y="47" fill="#000000" font-size="5px" font-weight="bold" font-family="'Helvetica Neue', Helvetica, Arial-Unicode, Arial, Sans-serif">Created by Atif Arshad</text><text x="0" y="52" fill="#000000" font-size="5px" font-weight="bold" font-family="'Helvetica Neue', Helvetica, Arial-Unicode, Arial, Sans-serif">from the Noun Project</text></svg>